<svg width="145" height="28" viewBox="0 0 145 28" fill="none" xmlns="http://www.w3.org/2000/svg">
<path d="M24.7302 20.9997L12.3651 28L0 20.9997V7.00033L12.3651 0L24.7302 7.00033V20.9997Z" fill="#303435"/>
<path d="M22.7269 19.9602L12.363 25.919L1.99915 19.9602V8.04129L12.363 2.08118L22.7269 8.04129V19.9602Z" fill="url(#paint0_linear)"/>
<path d="M18.7272 17.9822L12.0305 21.9635L5.33508 17.9822V10.0182L12.0305 6.0369L18.7272 10.0182V17.9822Z" fill="url(#paint1_linear)"/>
<path opacity="0.3" d="M12.3351 14.0284L22.7267 8.04059V19.9595L12.3351 25.9183V14.0284Z" fill="white"/>
<path d="M48.353 13.8927C50.2539 15.4881 50.797 17.2362 50.0672 19.222C49.3713 21.1059 47.6232 22.2601 45.3489 22.2601C42.7351 22.277 40.1214 22.277 37.5077 22.2601C35.7425 22.2601 35.0127 21.5472 35.0127 19.816C34.9958 16.0991 34.9958 12.3878 35.0127 8.68219C35.0127 7.01891 35.6916 6.2891 37.3379 6.25515C39.9177 6.20424 42.5145 6.15332 45.0943 6.23818C48.4548 6.34001 50.5424 9.14045 49.5241 12.0936C49.4106 12.431 49.2506 12.7509 49.0488 13.0441C48.8352 13.3415 48.6027 13.6249 48.353 13.8927ZM40.0705 18.9674C41.3434 18.9674 42.4975 19.0014 43.6516 18.9505C44.0431 18.9545 44.4203 18.8031 44.7003 18.5295C44.9803 18.2559 45.1403 17.8823 45.1452 17.4908C45.1792 16.6083 44.7039 16.0142 43.8893 15.9294C42.6333 15.8106 41.3604 15.8954 40.0875 15.8954C40.0705 16.9647 40.0705 17.9151 40.0705 18.9674ZM40.0705 12.7556C41.1907 12.7556 42.2429 12.8065 43.2952 12.7386C44.1778 12.6877 44.687 12.0767 44.7039 11.2111C44.7209 10.3455 44.2626 9.70053 43.3631 9.63265C42.2769 9.54778 41.1907 9.61567 40.0535 9.61567C40.0705 10.651 40.0705 11.6354 40.0705 12.7556ZM129.056 14.2491C129.056 12.3482 129.039 10.4473 129.056 8.52944C129.073 7.0868 129.667 6.30607 131.042 6.2891C133.418 6.25515 135.845 6.17029 138.187 6.52671C143.092 7.23955 145.01 11.1092 144.45 15.4881C143.907 19.6633 141.158 22.1073 136.948 22.2601C135.082 22.3279 133.198 22.294 131.331 22.277C129.82 22.2601 129.09 21.4963 129.056 19.9858C129.039 18.0679 129.056 16.15 129.056 14.2491ZM134.097 17.9151C135.947 17.8812 137.831 18.3055 138.985 16.4385C139.749 15.2165 139.664 12.9083 138.815 11.839C137.543 10.2097 135.777 10.7189 134.08 10.651C134.097 13.095 134.097 15.4372 134.097 17.9151ZM119.399 14.2491C119.365 19.256 116.022 22.4977 110.896 22.4637C105.957 22.4298 102.681 19.1202 102.698 14.1473C102.715 9.32714 106.195 5.94965 111.1 6.00057C116.09 6.05148 119.433 9.37806 119.399 14.2491ZM114.358 14.2831C114.257 13.706 114.223 13.1289 114.053 12.5689C113.357 10.3285 110.387 9.56476 108.808 11.1941C107.468 12.5858 107.366 15.6918 108.673 17.1005C109.041 17.5002 109.51 17.7934 110.03 17.9491C112.424 18.6959 114.273 17.0665 114.358 14.2831ZM77.2738 10.651H69.7211V6.22121H70.7395C74.2527 6.22121 77.783 6.20424 81.2963 6.22121C82.2297 6.22121 83.4178 5.94965 83.876 7.03588C84.1352 7.61271 84.2534 8.24291 84.221 8.87445C84.1885 9.50599 84.0063 10.1207 83.6894 10.668C83.4008 11.1941 82.9256 11.6184 82.4843 12.0427C80.5325 13.9097 78.5637 15.7597 76.4252 17.7794H83.9949V22.2431H72.3349C71.3844 22.2431 70.2133 22.4977 69.7381 21.4284C69.212 20.1894 69.2289 18.8316 70.0436 17.6436C70.3525 17.2331 70.6991 16.8524 71.0789 16.5064C73.0986 14.6225 75.0844 12.7386 77.2738 10.651ZM93.9576 10.651H86.3201C86.3201 9.27623 86.3031 7.96936 86.354 6.66249C86.354 6.50974 86.7274 6.25515 86.9311 6.25515C90.9705 6.23818 94.9929 6.22121 99.0323 6.25515C100.288 6.27213 100.713 6.83221 100.814 8.07119C100.95 9.66659 100.475 10.9395 99.253 12.0257C97.2163 13.8418 95.2645 15.7766 93.109 17.8133H100.696V22.277H89.0356C88.0852 22.277 86.9141 22.5316 86.4558 21.4624C85.9297 20.2234 85.9467 18.8656 86.7783 17.6775C87.0872 17.267 87.4338 16.8863 87.8136 16.5404C89.7824 14.6225 91.7682 12.7386 93.9576 10.651ZM57.552 6.22121V8.34275C57.552 10.7019 57.518 13.0611 57.5689 15.4202C57.6029 17.2702 58.3497 18.0849 59.8942 18.1018C61.2689 18.1188 62.1345 17.3381 62.1515 15.8954C62.2024 13.112 62.1684 10.3455 62.1854 7.56202C62.1854 6.22121 62.1854 6.22121 63.5772 6.22121C64.5106 6.22121 65.4441 6.25515 66.3946 6.20424C67.0395 6.17029 67.328 6.34001 67.3111 7.05285C67.2771 9.95512 67.345 12.8744 67.2432 15.7766C67.1074 19.7991 64.8161 22.1412 60.7767 22.4128C59.6501 22.49 58.5183 22.4042 57.4162 22.1582C54.3442 21.4624 52.613 19.3238 52.5112 16.0482C52.4094 13.0101 52.4603 9.97209 52.4942 6.93405C52.4942 6.69643 52.8167 6.25515 53.0034 6.23818C54.48 6.20424 55.9566 6.22121 57.552 6.22121ZM121.538 6.22121C123.133 6.22121 124.644 6.20424 126.154 6.23818C126.341 6.23818 126.646 6.57763 126.646 6.74735C126.663 11.856 126.646 16.9477 126.629 22.0564C126.629 22.0734 126.595 22.1073 126.527 22.1922H121.555C121.538 16.9138 121.538 11.6524 121.538 6.22121Z" fill="#373737"/>
<defs>
<linearGradient id="paint0_linear" x1="28.0745" y1="6.79911" x2="6.01216" y2="16.9122" gradientUnits="userSpaceOnUse">
<stop stop-color="#F2632D"/>
<stop offset="0.81" stop-color="#EF612B"/>
<stop offset="1" stop-color="#E0531D"/>
</linearGradient>
<linearGradient id="paint1_linear" x1="4.91398" y1="17.3235" x2="22.6518" y2="9.04005" gradientUnits="userSpaceOnUse">
<stop stop-color="#F2632D"/>
<stop offset="1" stop-color="#E0531D"/>
</linearGradient>
</defs>
</svg>
